<?xml version="1.0" standalone="no"?><!DOCTYPE svg PUBLIC "-//W3C//DTD SVG 1.1//EN" "http://www.w3.org/Graphics/SVG/1.1/DTD/svg11.dtd"><svg t="1533549288774" class="icon" style="" viewBox="0 0 1024 1024" version="1.1" xmlns="http://www.w3.org/2000/svg" p-id="2368" xmlns:xlink="http://www.w3.org/1999/xlink" width="48" height="48"><defs><style type="text/css"></style></defs><path d="M902.4 102.4c0-57.6-48-102.4-105.6-102.4H121.6C64 0 16 44.8 16 102.4v819.2C16 979.2 64 1024 121.6 1024h288c12.8 0 25.6-12.8 25.6-25.6s-12.8-25.6-25.6-25.6h-288c-28.8 0-51.2-22.4-51.2-51.2V102.4c0-28.8 22.4-51.2 51.2-51.2h678.4c28.8 0 51.2 22.4 51.2 51.2v332.8c0 12.8 9.6 25.6 25.6 25.6 12.8 0 25.6-12.8 25.6-25.6V102.4zM652.8 992l320-316.8c9.6-9.6 16-22.4 16-35.2 0-12.8-6.4-25.6-16-35.2l-70.4-67.2c-19.2-19.2-54.4-19.2-73.6 0l-320 313.6c-16 16-25.6 41.6-25.6 60.8v54.4c0 28.8 22.4 51.2 51.2 51.2H592c22.4 0 44.8-9.6 60.8-25.6z m-35.2-35.2c-6.4 6.4-16 9.6-25.6 9.6h-54.4v-54.4c0-6.4 6.4-19.2 9.6-25.6l320-313.6 70.4 67.2-320 316.8zM198.4 588.8c0-12.8 12.8-25.6 25.6-25.6H432c12.8 0 25.6 12.8 25.6 25.6s-12.8 25.6-25.6 25.6H224c-6.4 0-12.8-3.2-19.2-6.4s-6.4-12.8-6.4-19.2z m0-153.6c0-12.8 12.8-25.6 25.6-25.6h339.2c16 0 25.6 12.8 25.6 25.6s-12.8 25.6-25.6 25.6H224c-6.4 0-12.8-3.2-19.2-6.4-3.2-6.4-6.4-12.8-6.4-19.2z m0-153.6c0-12.8 12.8-25.6 25.6-25.6h416c12.8 0 25.6 12.8 25.6 25.6s-12.8 25.6-25.6 25.6h-416c-6.4 0-12.8-3.2-16-6.4-6.4-6.4-9.6-12.8-9.6-19.2z" p-id="2369"></path></svg>