<?xml version="1.0" standalone="no"?><!DOCTYPE svg PUBLIC "-//W3C//DTD SVG 1.1//EN" "http://www.w3.org/Graphics/SVG/1.1/DTD/svg11.dtd"><svg t="1543998183067" class="icon" style="" viewBox="0 0 1024 1024" version="1.1" xmlns="http://www.w3.org/2000/svg" p-id="26238" xmlns:xlink="http://www.w3.org/1999/xlink" width="64" height="64"><defs><style type="text/css"></style></defs><path d="M847.800487 81.619926 175.537434 81.619926c-61.883419 0-112.049982 53.165874-112.049982 118.745475l0 445.234387c0 65.579601 51.299363 126.017088 114.594945 126.017088l170.742732 0c29.764907 32.380478 152.938228 162.667823 152.938228 162.667823 5.476735 5.807263 14.334473 5.807263 19.808138 0 0 0 90.184999-104.464213 148.947334-162.667823l174.736697 0c63.294558 0 114.594945-60.454884 114.594945-126.017088L959.850469 200.3654C959.850469 134.785799 909.68493 81.619926 847.800487 81.619926zM287.587416 497.193783c-30.950919 0-56.024991-26.574239-56.024991-59.373249 0-32.797987 25.073048-59.372226 56.024991-59.372226 30.933523 0 56.006572 26.574239 56.006572 59.372226C343.593987 470.620567 318.520939 497.193783 287.587416 497.193783zM511.667937 497.193783c-30.931476 0-56.023968-26.574239-56.023968-59.373249 0-32.797987 25.092491-59.372226 56.023968-59.372226 30.933523 0 56.024991 26.574239 56.024991 59.372226C567.692928 470.620567 542.60146 497.193783 511.667937 497.193783zM735.768925 497.193783c-30.950919 0-56.024991-26.574239-56.024991-59.373249 0-32.797987 25.074072-59.372226 56.024991-59.372226 30.9325 0 56.024991 26.574239 56.024991 59.372226C791.793916 470.620567 766.700401 497.193783 735.768925 497.193783z" p-id="26239"></path></svg>