<?xml version="1.0" standalone="no"?><!DOCTYPE svg PUBLIC "-//W3C//DTD SVG 1.1//EN" "http://www.w3.org/Graphics/SVG/1.1/DTD/svg11.dtd"><svg t="1533549368642" class="icon" style="" viewBox="0 0 1024 1024" version="1.1" xmlns="http://www.w3.org/2000/svg" p-id="3067" xmlns:xlink="http://www.w3.org/1999/xlink" width="48" height="48"><defs><style type="text/css"></style></defs><path d="M844.2 445c-99.2-81-198.2-162-297.4-243.2-24.8-20.2-45.2-20.4-70-0.2-99.2 81-198.2 162.2-297.4 243.2-15.2 12.4-22 27.4-21.8 46.8 0.2 144.8 0 289.6 0.2 434.4 0 35.2 18.4 53.6 53.2 53.6 56.4 0 113-0.2 169.4 0.2 9.8 0 11.4-3.2 11.4-12-0.4-81.6-0.2-163-0.2-244.6 0-26.8 12.8-39.6 39.6-39.6h158c30.8 0 42.8 11.8 42.8 42.2 0 81.2 0.2 162.4-0.2 243.6 0 7.8 2 10.4 10.2 10.4 57.4-0.4 115-0.2 172.4-0.2 6 0 12.2-0.6 18-2.2 21.2-5.8 33.4-23.8 33.4-49.2V709.6c0-72.8-0.2-145.8 0-218.6 0.2-19.2-6.8-34-21.6-46z" fill="" p-id="3068"></path><path d="M987.8 435.6c0-5.2-0.2-10.2 0-15.4 0.4-17.6-6.6-31.6-20.4-42.6-129.2-102.6-258.2-205.4-387.6-307.8-43-34-93-34.2-136.2 0C314.4 172 185.4 274.8 56.2 377.6c-13.6 10.8-20.8 24.8-20.4 42.6 0.2 10.2-0.2 20.6 0 30.8 0.4 28.4 19.8 49.2 46.6 49.8 27.4 0.6 48.8-19.2 49.4-48 0.2-10 4-15.4 11.2-21.2 111.2-88 222.2-176.4 333.2-264.6 25.4-20.2 46-20.2 71.2 0 110.8 88 221.6 176.2 332.6 264 7.8 6.2 12 12 12.2 22.8 0.6 25.6 19 45 42.4 46.8 25.4 2.2 46.8-12.6 52.2-37 2-9 1.2-18.4 1.8-27.8-0.4-0.2-0.6-0.2-0.8-0.2z" fill="" p-id="3069"></path></svg>