<?xml version="1.0" standalone="no"?><!DOCTYPE svg PUBLIC "-//W3C//DTD SVG 1.1//EN" "http://www.w3.org/Graphics/SVG/1.1/DTD/svg11.dtd"><svg t="1533548992888" class="icon" style="" viewBox="0 0 1024 1024" version="1.1" xmlns="http://www.w3.org/2000/svg" p-id="501" xmlns:xlink="http://www.w3.org/1999/xlink" width="48" height="48"><defs><style type="text/css"></style></defs><path d="M537.9 946.7l415.9-575.9c0.7-0.9 1.3-1.8 1.8-2.8v-0.1c0.2-0.4 0.4-0.7 0.6-1.1 0.1-0.1 0.1-0.2 0.2-0.4s0.2-0.5 0.3-0.7c1.9-3.9 2.9-8 3.1-12.2v-0.6-0.3c0.1-4.3-0.6-8.6-2.3-12.7-0.1-0.2-0.2-0.4-0.2-0.6-0.1-0.2-0.1-0.3-0.2-0.5-0.2-0.4-0.3-0.7-0.5-1.1 0 0 0-0.1-0.1-0.1-0.5-1-1-1.9-1.6-2.8L795.4 79.5c0-0.1-0.1-0.1-0.1-0.2l-0.1-0.2c0-0.1-0.1-0.1-0.1-0.2-0.2-0.3-0.4-0.7-0.7-1-0.1-0.2-0.2-0.3-0.3-0.5-0.2-0.3-0.4-0.5-0.5-0.7-0.2-0.2-0.3-0.4-0.5-0.7-0.1-0.2-0.3-0.3-0.4-0.5-0.2-0.3-0.5-0.5-0.7-0.8l-0.3-0.3-0.9-0.9-0.2-0.2c-0.3-0.3-0.6-0.6-1-0.9l-0.1-0.1c-0.3-0.3-0.7-0.6-1.1-0.9l-0.1-0.1c-0.4-0.3-0.7-0.6-1.1-0.8-0.1 0-0.1-0.1-0.2-0.1-0.3-0.3-0.7-0.5-1-0.7-0.1-0.1-0.2-0.1-0.3-0.2l-0.9-0.6c-0.2-0.1-0.3-0.2-0.5-0.3-0.2-0.1-0.5-0.3-0.7-0.4-0.2-0.1-0.5-0.3-0.8-0.4-0.2-0.1-0.4-0.2-0.5-0.3-0.3-0.2-0.6-0.3-1-0.5-0.1-0.1-0.2-0.1-0.4-0.2-0.4-0.2-0.8-0.3-1.2-0.5-0.1 0-0.1-0.1-0.2-0.1-0.4-0.2-0.9-0.3-1.3-0.5h-0.1c-0.4-0.1-0.9-0.3-1.3-0.4h-0.1c-0.4-0.1-0.9-0.2-1.3-0.3h-0.2l-1.2-0.3c-0.1 0-0.2 0-0.4-0.1-0.4-0.1-0.7-0.1-1.1-0.2-0.2 0-0.4-0.1-0.6-0.1-0.3 0-0.6-0.1-0.9-0.1-0.3 0-0.6 0-0.9-0.1H767.7 253.9c-0.3 0-0.6 0-0.9 0.1-0.3 0-0.6 0.1-0.9 0.1-0.2 0-0.4 0-0.6 0.1-0.4 0-0.7 0.1-1.1 0.2-0.1 0-0.2 0-0.4 0.1l-1.2 0.3h-0.2c-0.4 0.1-0.9 0.2-1.3 0.3h-0.1c-0.5 0.1-0.9 0.3-1.4 0.4h-0.1c-0.4 0.1-0.9 0.3-1.3 0.5-0.1 0-0.1 0-0.2 0.1-0.4 0.2-0.8 0.3-1.2 0.5-0.1 0-0.2 0.1-0.3 0.1-0.3 0.2-0.7 0.3-1 0.5-0.2 0.1-0.3 0.2-0.5 0.3-0.3 0.1-0.5 0.3-0.8 0.4-0.2 0.1-0.5 0.3-0.7 0.4l-0.6 0.3-0.9 0.6c-0.1 0.1-0.2 0.2-0.4 0.2-0.3 0.2-0.7 0.5-1 0.7l-0.2 0.2c-0.4 0.3-0.7 0.5-1.1 0.8l-0.1 0.1c-0.4 0.3-0.7 0.6-1 0.9l-0.1 0.1c-0.3 0.3-0.6 0.6-1 0.9l-0.2 0.2c-0.3 0.3-0.6 0.6-0.8 0.9l-0.3 0.3c-0.2 0.3-0.5 0.5-0.7 0.8-0.1 0.2-0.3 0.3-0.4 0.5-0.2 0.2-0.3 0.4-0.5 0.7-0.2 0.2-0.4 0.5-0.5 0.7-0.1 0.2-0.2 0.3-0.3 0.5-0.2 0.3-0.5 0.7-0.7 1 0 0.1-0.1 0.1-0.1 0.2l-0.2 0.2c0 0.1-0.1 0.1-0.1 0.2L68.9 335c-0.6 0.9-1.1 1.9-1.6 2.8 0 0 0 0.1-0.1 0.1-0.2 0.4-0.3 0.7-0.5 1.1-0.1 0.1-0.1 0.3-0.2 0.4-0.1 0.2-0.2 0.4-0.2 0.6-1.6 4.1-2.4 8.3-2.3 12.6v0.9c0.2 4.2 1.2 8.4 3.1 12.4l0.3 0.6c0.1 0.1 0.2 0.3 0.2 0.4 0.2 0.3 0.4 0.7 0.6 1l0.1 0.1c0.5 0.9 1.1 1.8 1.8 2.7l416 575.9c0.8 1.1 1.6 2.1 2.5 3l0.2 0.2c0.3 0.4 0.7 0.7 1 1.1l0.6 0.6 0.6 0.6c0.3 0.2 0.6 0.5 0.8 0.7 0.1 0.1 0.3 0.2 0.4 0.3 0.3 0.3 0.7 0.5 1 0.8h0.1c0.6 0.5 1.3 0.9 1.9 1.3 0.1 0.1 0.2 0.1 0.3 0.2 1.3 0.8 2.7 1.5 4.1 2.1 0.3 0.1 0.5 0.2 0.8 0.3 0.4 0.2 0.8 0.3 1.3 0.5l0.9 0.3c0.4 0.1 0.9 0.2 1.3 0.4 0.5 0.1 1 0.2 1.5 0.4 0.4 0.1 0.8 0.2 1.2 0.2 0.3 0.1 0.7 0.1 1 0.1 0.4 0.1 0.8 0.1 1.2 0.1 0.3 0 0.6 0.1 0.9 0.1 0.6 0 1.3 0.1 1.9 0.1h0.4c0.6 0 1.3 0 1.9-0.1 0.3 0 0.6-0.1 0.9-0.1 0.4 0 0.8-0.1 1.2-0.1 0.3 0 0.7-0.1 1-0.1 0.4-0.1 0.8-0.1 1.2-0.2 0.5-0.1 1-0.2 1.6-0.4 0.4-0.1 0.8-0.2 1.3-0.3 0.3-0.1 0.6-0.2 1-0.3 0.4-0.1 0.8-0.3 1.2-0.4 0.3-0.1 0.5-0.2 0.8-0.3 1.4-0.6 2.8-1.3 4.1-2.1 0.1-0.1 0.2-0.1 0.3-0.2 0.7-0.4 1.3-0.8 1.9-1.3h0.1c0.3-0.3 0.7-0.5 1-0.8 0.1-0.1 0.3-0.2 0.4-0.3 0.3-0.2 0.6-0.5 0.8-0.7l0.6-0.6 0.6-0.6c0.4-0.3 0.7-0.7 1-1.1l0.2-0.2c1.3-1 2.1-2 2.8-3.1z m-403.4-596L273.7 128h476.5l139.2 222.7L512 873.3 134.5 350.7z" p-id="502"></path><path d="M663.2 496.6c-6.8-25.7-24.2-49-50.2-67.5-25-17.8-57-30.7-95.1-38.2-59.2-14.2-93.6-43.2-92.1-77.6 1.2-27.6 25.3-51.8 56-56.4 80.1-12 119.7 34.4 121.4 36.4l-0.2-0.3 0.5-0.4c5.8 7.6 14.9 12.5 25.1 12.5 17.4 0 31.5-14.1 31.5-31.5 0-7.7-2.7-14.7-7.3-20.1l0.3-0.3c-2.5-3.2-62.9-77.3-180.7-59.7-29.7 4.4-57.2 18.7-77.4 40.2-20.2 21.4-31.9 48.7-33.1 76.8-1.4 31.5 10.8 62.3 34.2 86.9 24.7 25.9 60.9 44.7 107.6 55.9l1.3 0.3c29 5.7 53.6 15.3 71 27.7 13.7 9.7 22.5 20.7 25.4 31.8 4.9 18.5-7.9 34.4-19.6 44.5-14.6 12.7-31 19.3-50.2 20.2-16.5 0.8-35-2.7-54.9-10.4-36.7-14.2-64.8-37.6-65-37.8-13.5-11.4-33.7-9.8-45.1 3.7-11.4 13.5-9.8 33.7 3.7 45.1 1.4 1.2 35.4 29.8 81.6 48 26 10.3 51.2 15.5 75 15.5 2.2 0 4.5 0 6.7-0.1 34-1.4 64.3-13.5 90.1-35.9 35.4-30.7 49.8-70.6 39.5-109.3z" p-id="503"></path></svg>