<?xml version="1.0" standalone="no"?><!DOCTYPE svg PUBLIC "-//W3C//DTD SVG 1.1//EN" "http://www.w3.org/Graphics/SVG/1.1/DTD/svg11.dtd"><svg t="1533549180052" class="icon" style="" viewBox="0 0 1861 1024" version="1.1" xmlns="http://www.w3.org/2000/svg" p-id="1714" xmlns:xlink="http://www.w3.org/1999/xlink" width="87.234375" height="48"><defs><style type="text/css"></style></defs><path d="M643.816727 716.8v-20.666182a82.013091 82.013091 0 0 0 20.852364-5.864727 24.855273 24.855273 0 0 0 11.450182-10.146909 41.332364 41.332364 0 0 0 4.654545-16.756364 282.065455 282.065455 0 0 0 0.930909-25.227636V325.538909h-25.320727a74.472727 74.472727 0 0 0-28.858182 4.468364 44.776727 44.776727 0 0 0-17.408 13.777454 84.712727 84.712727 0 0 0-12.660363 25.134546c-3.537455 10.612364-6.516364 20.573091-8.843637 29.975272h-42.821818V288.861091h368.919273v110.033454h-43.008a617.378909 617.378909 0 0 0-9.309091-31.278545 90.484364 90.484364 0 0 0-7.726546-17.128727 60.695273 60.695273 0 0 0-8.936727-11.729455 41.984 41.984 0 0 0-10.053818-7.447273 45.428364 45.428364 0 0 0-13.312-4.282181 124.369455 124.369455 0 0 0-20.852364-1.489455h-22.621091v312.599273c0 11.077818 0.372364 19.549091 0.930909 25.134545 0.651636 5.864727 1.861818 10.519273 3.537455 13.963637 1.675636 3.630545 3.723636 6.516364 6.050909 8.657454a34.350545 34.350545 0 0 0 10.053818 5.957818c4.282182 1.861818 10.053818 3.258182 17.408 4.282182V716.8H643.816727zM0 160.861091C0 72.238545 71.959273 0 159.930182 0h1541.957818C1790.324364 0 1861.818182 72.052364 1861.818182 160.861091v641.303273c0 88.622545-71.959273 160.861091-159.930182 160.861091H159.930182C71.493818 963.025455 0 890.88 0 802.164364V160.861091z m64.232727 0v641.303273c0 53.434182 42.821818 96.628364 95.697455 96.628363h1541.957818c52.503273 0 95.697455-43.380364 95.697455-96.628363V160.861091c0-53.434182-42.821818-96.628364-95.697455-96.628364H159.930182C107.426909 64.232727 64.232727 107.613091 64.232727 160.861091zM1054.161455 716.8v-20.666182a82.013091 82.013091 0 0 0 20.852363-5.864727 24.855273 24.855273 0 0 0 11.450182-10.146909 41.332364 41.332364 0 0 0 4.654545-16.756364 282.065455 282.065455 0 0 0 0.93091-25.227636V325.538909h-25.320728a74.472727 74.472727 0 0 0-28.858182 4.468364 44.776727 44.776727 0 0 0-17.408 13.777454 84.712727 84.712727 0 0 0-12.660363 25.134546c-3.537455 10.612364-6.516364 20.573091-8.843637 29.975272h-42.821818V288.861091h368.919273v110.033454h-43.008a617.378909 617.378909 0 0 0-9.309091-31.278545 90.484364 90.484364 0 0 0-7.726545-17.128727 60.695273 60.695273 0 0 0-8.936728-11.729455 41.984 41.984 0 0 0-10.053818-7.447273 45.428364 45.428364 0 0 0-13.312-4.282181 124.369455 124.369455 0 0 0-20.852363-1.489455h-22.621091v312.599273c0 11.077818 0.372364 19.549091 0.930909 25.134545 0.651636 5.864727 1.861818 10.519273 3.537454 13.963637 1.675636 3.630545 3.723636 6.516364 6.050909 8.657454a34.350545 34.350545 0 0 0 10.053819 5.957818c4.282182 1.861818 10.053818 3.258182 17.408 4.282182V716.8h-173.056z" p-id="1715"></path></svg>