<?xml version="1.0" standalone="no"?><!DOCTYPE svg PUBLIC "-//W3C//DTD SVG 1.1//EN" "http://www.w3.org/Graphics/SVG/1.1/DTD/svg11.dtd"><svg t="1533549095416" class="icon" style="" viewBox="0 0 1024 1024" version="1.1" xmlns="http://www.w3.org/2000/svg" p-id="1550" xmlns:xlink="http://www.w3.org/1999/xlink" width="48" height="48"><defs><style type="text/css"></style></defs><path d="M1024 832v-64h-56.96a166.4 166.4 0 0 0-28.8-67.84l39.68-40.96-38.4-39.04-40.32 40.96A160.64 160.64 0 0 0 832 633.6V576h-64v56.96a166.4 166.4 0 0 0-67.84 28.8l-40.96-39.68-39.04 38.4 40.96 40.32A160.64 160.64 0 0 0 633.6 768H576v64h56.96a166.4 166.4 0 0 0 28.8 67.84l-39.68 40.96 38.4 39.04 40.32-40.96a160.64 160.64 0 0 0 67.2 27.52v57.6h64v-56.96a166.4 166.4 0 0 0 67.84-28.8l40.96 39.68 39.04-38.4-40.96-40.32A160.64 160.64 0 0 0 966.4 832z m-224 51.84a83.84 83.84 0 1 1 83.84-83.84 83.84 83.84 0 0 1-83.84 83.84z" fill="" p-id="1551"></path><path d="M512 0a239.36 239.36 0 1 0 239.36 239.36A239.36 239.36 0 0 0 512 0zM0 990.72V1024h592.64a352 352 0 0 1 80-519.04A512 512 0 0 0 0 990.72z" fill="" p-id="1552"></path></svg>